<svg width="66" height="83" xmlns="http://www.w3.org/2000/svg" xmlns:xlink="http://www.w3.org/1999/xlink" xml:space="preserve" overflow="hidden"><g transform="translate(-402 -9)"><g><g><g><g><path d="M18.434 13.6631C22.0655 9.95182 26.634 6.54935 31.9427 6.03286 36.8255 6.75169 40.9894 9.80273 44.6474 12.9443 50.6803 18.4873 55.6961 25.5105 57.6449 33.5614 58.0123 35.3345 58.5821 37.31 57.6077 38.9979 57.0007 40.2439 55.4725 40.3184 54.317 40.6912 54.3649 42.5814 54.4395 44.4717 54.4927 46.3619 53.891 45.6484 53.3053 44.919 52.709 44.2055 52.07 44.9243 51.431 45.6378 50.7708 46.33 50.7974 43.6677 50.7388 41.0053 50.5844 38.343 51.447 37.8584 52.3096 37.3686 53.1669 36.8734 49.9561 27.4966 43.886 18.6097 34.8447 14.0838 33.5295 13.5406 32.0918 12.3586 30.6275 13.0614 24.403 15.809 19.2114 20.6757 15.8303 26.5595 13.8761 29.7916 12.4651 33.3058 11.0806 36.8095 11.8314 37.2142 12.5822 37.6135 13.3436 37.9969 13.6365 40.7338 13.1786 43.4653 13.2371 46.2075 12.6142 45.4674 11.9965 44.7273 11.3682 44.0031 10.889 44.5675 10.4151 45.132 9.95182 45.707 9.82935 45.8082 9.58442 45.9999 9.46727 46.0957 9.54714 43.9978 9.76013 41.9158 9.85065 39.8232 8.30117 39.2855 6.27779 38.5933 6.08078 36.6817 5.93169 33.8383 7.39597 31.2239 8.38636 28.6361L8.34377 29.3443C7.66753 31.7404 6.21922 34.03 6.45883 36.5965 6.65584 38.3643 8.59403 38.9021 9.99974 39.4132 12.5396 30.9097 16.581 22.353 23.7108 16.7514 25.8406 15.1221 28.1356 13.6471 30.6329 12.6461 31.9694 12.087 33.3165 12.9336 34.5199 13.4555 42.7039 17.3425 48.6196 24.8769 52.0966 33.0875 53.1456 35.4251 53.6461 37.9436 54.2105 40.4249 55.6003 39.9564 57.4053 39.4931 57.7142 37.7999 58.039 35.3984 57.0592 33.0822 56.596 30.766 55.5097 31.8416 54.3649 32.8586 53.1456 33.7797 53.2255 33.3112 53.3799 32.3794 53.4597 31.9161 53.2042 31.7457 52.6823 31.4156 52.4214 31.2452 52.1552 30.6169 51.8836 29.9886 51.6014 29.3656 52.7995 28.8384 54.0082 28.3326 55.2595 27.9492 54.6578 29.0461 53.5396 29.5679 52.4001 29.9353 52.7303 30.127 53.0604 30.3134 53.3958 30.5051 54.4395 30.521 55.4778 30.5477 56.5214 30.5903 53.0125 21.8312 46.7666 14.1051 38.7583 9.07857 35.9735 7.49714 32.6722 5.63351 29.4029 6.86351 23.9717 8.50351 19.9622 12.6781 16.0592 16.5438 16.4639 15.3404 17.6406 14.6109 18.434 13.6631Z" fill="#14141D" fill-rule="nonzero" fill-opacity="1" transform="matrix(1.01562 0 0 1 403.053 10)"/><path d="M29.4029 6.86351C32.6722 5.63351 35.9735 7.49714 38.7583 9.07857 46.7666 14.1051 53.0125 21.8312 56.5214 30.5903 55.4778 30.5477 54.4395 30.521 53.3958 30.5051 53.0604 30.3134 52.7303 30.127 52.4001 29.9353 53.5396 29.5679 54.6578 29.0461 55.2595 27.9492 54.0082 28.3326 52.7995 28.8384 51.6014 29.3656 51.8836 29.9886 52.1552 30.6169 52.4214 31.2452 52.6823 31.4156 53.2042 31.7457 53.4597 31.9161 53.3799 32.3794 53.2255 33.3112 53.1456 33.7797 54.3649 32.8586 55.5097 31.8416 56.596 30.766 57.0592 33.0822 58.039 35.3984 57.7142 37.7999 57.4053 39.4931 55.6003 39.9564 54.2105 40.4249 53.6461 37.9436 53.1456 35.4251 52.0966 33.0875 48.6196 24.8769 42.7039 17.3425 34.5199 13.4555 33.3165 12.9336 31.9694 12.087 30.6329 12.6461 28.1356 13.6471 25.8406 15.1221 23.7108 16.7514 16.581 22.353 12.5396 30.9097 9.99974 39.4132 8.59403 38.9021 6.65584 38.3643 6.45883 36.5965 6.21922 34.03 7.66753 31.7404 8.34377 29.3443L8.42364 29.1526C9.54714 27.0653 10.8144 25.0366 11.6397 22.8056L11.6397 22.8003C12.923 21.3413 13.9773 19.7066 15.1008 18.1252 15.6865 18.6044 16.2722 19.0943 16.8473 19.5948 15.9581 19.7013 15.0635 19.7918 14.169 19.8717 15.2232 20.8514 16.2456 22.0335 17.7471 22.2625 17.2306 21.6661 16.7088 21.0804 16.1817 20.5 17.0709 20.5586 17.9655 20.6012 18.86 20.6384 17.8536 19.4564 16.4373 18.5671 15.8196 17.0975L16.0592 16.5438C19.9622 12.6781 23.9717 8.50351 29.4029 6.86351Z" fill="#F89243" fill-rule="nonzero" fill-opacity="1" transform="matrix(1.01562 0 0 1 403.053 10)"/><path d="M28.9023 8.1787C30.2921 8.16805 30.2974 10.3086 30.6968 11.3416 30.5477 11.48 30.2548 11.7569 30.1057 11.8953 29.6265 10.6866 29.1206 9.46727 28.9023 8.1787Z" fill="#14141D" fill-rule="nonzero" fill-opacity="1" transform="matrix(1.01562 0 0 1 403.053 10)"/><path d="M30.6435 7.80065C32.0971 8.20533 34.7542 7.52377 34.9512 9.64831 35.3771 9.55247 36.2238 9.35545 36.6444 9.25961 35.8297 10.4523 34.6849 11.3469 33.7105 12.3905 33.9661 11.0434 34.1525 9.67494 33.9075 8.30649 32.2995 8.74312 32.5231 10.3831 32.2675 11.6717 31.176 11.3788 31.8362 9.98909 31.5114 9.19039 31.2931 8.84429 30.8618 8.15208 30.6435 7.80065Z" fill="#14141D" fill-rule="nonzero" fill-opacity="1" transform="matrix(1.01562 0 0 1 403.053 10)"/><path d="M25.8353 9.64831C26.6607 9.24896 27.5765 8.46623 28.4497 9.23831 28.0238 9.40338 27.1825 9.73883 26.7618 9.90922 27.5765 10.0051 28.7799 9.7974 29.0781 10.8304 29.7916 12.1722 27.044 13.3809 26.7245 11.5705 27.1292 11.6078 27.9439 11.693 28.3486 11.7303 28.3007 11.5332 28.1995 11.1339 28.1462 10.9369 26.9855 11.2617 26.2453 10.7239 25.8353 9.64831Z" fill="#14141D" fill-rule="nonzero" fill-opacity="1" transform="matrix(1.01562 0 0 1 403.053 10)"/><path d="M22.8216 11.5279C23.4978 11.086 24.1581 10.6121 24.8769 10.2287 25.3827 10.676 25.5904 11.3256 25.8726 11.9166 26.2986 12.1722 27.4594 13.4661 26.1548 13.1945 25.9099 13.1786 25.42 13.1413 25.1751 13.12 25.0526 12.4491 24.9408 11.7782 24.8236 11.1073 22.6245 11.709 25.9205 13.2531 25.0792 14.3713 23.9344 13.9027 23.5777 12.4331 22.8216 11.5279Z" fill="#14141D" fill-rule="nonzero" fill-opacity="1" transform="matrix(1.01562 0 0 1 403.053 10)"/><path d="M39.0405 11.3149C40.1108 10.479 41.8786 12.1722 41.0799 13.3064 40.6645 14.2701 39.3973 15.351 38.4814 14.2755 37.2887 13.4768 38.0927 11.9219 39.0405 11.3149Z" fill="#14141D" fill-rule="nonzero" fill-opacity="1" transform="matrix(1.01562 0 0 1 403.053 10)"/><path d="M38.7743 14.0092C38.7743 12.939 39.344 11.464 40.6699 12.2308 40.2279 13.0082 39.7221 13.8069 38.7743 14.0092Z" fill="#FFAE61" fill-rule="nonzero" fill-opacity="1" transform="matrix(1.01562 0 0 1 403.053 10)"/><path d="M20.3935 13.2957C21.1496 12.8271 21.9164 12.3799 22.6938 11.9486 22.2678 12.6088 21.8258 13.2531 21.3945 13.9027 22.0601 13.6791 22.7204 13.4501 23.3913 13.2318 22.9919 13.8655 22.5713 14.4884 22.1666 15.1168 22.8908 14.8186 23.6149 14.531 24.3497 14.2542 23.9451 15.1966 23.1038 15.777 22.2944 16.3361 21.6714 15.3191 21.0325 14.3074 20.3935 13.2957Z" fill="#14141D" fill-rule="nonzero" fill-opacity="1" transform="matrix(1.01562 0 0 1 403.053 10)"/><path d="M40.2066 16.1178C40.7657 14.8878 41.6177 13.8495 42.4803 12.8271 43.1352 13.4768 43.7848 14.1317 44.4025 14.8186 43.8647 14.6535 42.7891 14.3127 42.246 14.1477 42.4909 14.5577 42.9808 15.3883 43.2204 15.7983 42.1874 15.1061 41.1757 15.5321 40.2066 16.1178Z" fill="#14141D" fill-rule="nonzero" fill-opacity="1" transform="matrix(1.01562 0 0 1 403.053 10)"/><path d="M19.1901 14.3766C19.3818 14.2755 19.7758 14.0625 19.9675 13.9613 20.4521 15.1274 21.1123 16.2562 21.2508 17.5342 20.0155 18.3275 18.7216 16.3734 17.5661 15.8888 18.5352 14.9091 19.467 16.4905 20.3775 16.6662 19.9835 15.9048 19.5842 15.1381 19.1901 14.3766Z" fill="#14141D" fill-rule="nonzero" fill-opacity="1" transform="matrix(1.01562 0 0 1 403.053 10)"/><path d="M31.7777 16.2882C41.4153 20.303 48.9977 29.3762 50.0413 39.9191 50.8613 46.74 48.6569 53.8697 44.2427 59.1305 41.5538 62.5064 37.8584 64.8971 34.0513 66.8353 39.1204 67.7671 43.9445 69.7 49.0403 70.504 51.6707 70.8874 54.6738 70.8555 56.6439 68.7842 55.2488 66.1378 52.2084 65.5148 49.4716 65.6 49.5088 64.1623 49.5461 62.73 49.5834 61.2977 52.693 61.3722 56.3564 62.1603 57.8792 65.2113 58.5714 68.1558 59.0613 71.6861 57.1125 74.2686 55.2488 76.3984 52.1499 76.3931 49.5514 76.244 43.4227 75.7382 37.6029 73.3261 31.4529 73.0545 25.1271 73.4432 19.1475 76.1429 12.7792 76.2494 10.5269 76.1801 8.01896 75.6264 6.5813 73.7308 5.42052 72.1121 4.92 69.9875 5.38857 68.0334 5.3513 66.6223 5.40455 65.0675 6.46948 63.9973 8.29052 61.7929 11.3043 61.4361 13.9666 61.1752 13.9826 62.7087 13.9879 64.2369 13.9932 65.7704 11.4747 65.5308 8.6526 66.3082 7.39597 68.6936 8.09883 69.9929 9.85597 70.3709 11.2191 70.5732 17.6673 70.93 23.6416 68.0121 29.8661 66.8194 23.5457 63.6458 18.1838 58.3212 15.7131 51.6227 12.5875 43.2577 13.6045 33.2206 19.073 26.043 22.2518 21.6288 26.847 18.466 31.7777 16.2882Z" fill="#14141D" fill-rule="nonzero" fill-opacity="1" transform="matrix(1.01562 0 0 1 403.053 10)"/><path d="M45.116 15.8995C46.1383 16.4745 46.9583 17.3158 47.6825 18.2264 46.6229 18.4074 45.5579 18.5405 44.4983 18.6683 44.9083 19.2274 45.3236 19.7918 45.7283 20.3562 46.937 19.9995 48.3268 18.7269 49.4236 19.9409 48.6995 21.0538 47.9008 22.124 47.0222 23.1251 46.9636 22.7151 46.8465 21.9004 46.7879 21.4957 45.1213 20.8301 44.0191 19.3499 42.869 18.0453 43.886 17.8962 44.9083 17.7844 45.9307 17.6992 45.6644 17.0975 45.3929 16.4958 45.116 15.8995Z" fill="#14141D" fill-rule="nonzero" fill-opacity="1" transform="matrix(1.01562 0 0 1 403.053 10)"/><path d="M16.8952 16.3095C18.0347 17.2413 19.3232 18.2051 19.6906 19.7119 18.4394 18.9665 16.826 17.9761 16.8952 16.3095Z" fill="#14141D" fill-rule="nonzero" fill-opacity="1" transform="matrix(1.01562 0 0 1 403.053 10)"/><path d="M15.5906 16.9804 15.8196 17.0975C16.4373 18.5671 17.8536 19.4564 18.86 20.6384 17.9655 20.6012 17.0709 20.5586 16.1817 20.5 16.7088 21.0804 17.2306 21.6661 17.7471 22.2625 16.2456 22.0335 15.2232 20.8514 14.169 19.8717 15.0635 19.7918 15.9581 19.7013 16.8473 19.5948 16.2722 19.0943 15.6865 18.6044 15.1008 18.1252 13.9773 19.7066 12.923 21.3413 11.6397 22.8003 12.6621 20.6864 14.0678 18.7588 15.5906 16.9804Z" fill="#14141D" fill-rule="nonzero" fill-opacity="1" transform="matrix(1.01562 0 0 1 403.053 10)"/><path d="M17.0709 30.4465C20.0527 24.2432 25.6117 19.5735 31.8895 16.9165 39.7061 20.5213 46.3566 27.1878 48.6249 35.6434 50.9891 43.1139 49.2639 51.5801 44.5675 57.7781 41.7774 61.4894 37.933 64.2688 33.8064 66.3188 32.9331 66.7395 31.8842 67.0643 30.947 66.633 25.0952 63.9813 20.0368 59.4074 17.1987 53.6035 13.6312 46.4471 13.5406 37.6348 17.0709 30.4465Z" fill="#F89243" fill-rule="nonzero" fill-opacity="1" transform="matrix(1.01562 0 0 1 403.053 10)"/><path d="M17.0816 40.3451C17.646 31.4049 23.6895 23.3221 31.9001 19.8823 32.5125 20.2551 33.1355 20.6225 33.7531 20.9899L33.7478 21.0804C33.5934 27.4806 33.6999 33.8809 33.6839 40.2758 38.1087 40.2599 42.5335 40.2279 46.9583 40.2226 46.6868 40.377 46.1543 40.6912 45.8827 40.8509 46.2661 41.213 46.6442 41.5804 47.0222 41.9478 46.8358 42.8477 46.756 43.7635 46.8625 44.6794 46.3673 52.9007 40.6166 60.1475 33.2686 63.534 32.9171 63.3956 32.209 63.124 31.8575 62.9856 31.7617 62.6555 31.57 61.9899 31.4742 61.6544 31.4688 60.9729 31.0482 60.2487 30.2974 60.2274 30.0684 60.9249 30.2548 61.6917 30.6861 62.2668 30.979 62.4478 31.5647 62.8099 31.8575 62.9856 31.9534 63.2465 32.1504 63.7577 32.2462 64.0133 31.4955 63.7896 30.7553 63.5553 30.0152 63.3104L30.0205 63.1187C30.127 56.7664 30.0844 50.4087 30.0418 44.0564 25.7981 44.0244 21.5543 44.0244 17.3158 44.0244 17.2732 43.3695 17.2253 42.7145 17.1934 42.0596 18.0027 42.656 18.876 41.2662 17.843 40.9308 17.6513 40.787 17.2732 40.4942 17.0816 40.3451Z" fill="#231D20" fill-rule="nonzero" fill-opacity="1" transform="matrix(1.01562 0 0 1 403.053 10)"/><path d="M47.3577 20.3722C49.1414 20.3349 46.6069 22.0016 47.3577 20.3722Z" fill="#F89243" fill-rule="nonzero" fill-opacity="1" transform="matrix(1.01562 0 0 1 403.053 10)"/><path d="M13.8761 20.9313C14.7653 21.4851 15.6812 22.0868 16.2509 22.9919 16.5118 23.7853 15.6758 24.3817 15.2019 24.8875 13.9453 24.7171 12.8751 23.7694 12.3692 22.6352 13.3809 23.0771 14.3766 23.5404 15.3723 24.0036 15.9847 22.4488 12.7047 22.2944 13.8761 20.9313Z" fill="#14141D" fill-rule="nonzero" fill-opacity="1" transform="matrix(1.01562 0 0 1 403.053 10)"/><path d="M31.9481 22.6618C30.75 21.5969 33.5188 20.5745 32.9757 22.2145 32.8106 22.3423 32.4912 22.6086 32.3261 22.7364L31.9481 22.6618Z" fill="#C41F2F" fill-rule="nonzero" fill-opacity="1" transform="matrix(1.01562 0 0 1 403.053 10)"/><path d="M33.7478 21.0804C40.9201 24.8396 45.8135 32.2569 46.9583 40.2226 42.5335 40.2279 38.1087 40.2599 33.6839 40.2758 33.6999 33.8809 33.5934 27.4806 33.7478 21.0804Z" fill="#EF182C" fill-rule="nonzero" fill-opacity="1" transform="matrix(1.01562 0 0 1 403.053 10)"/><path d="M47.4109 23.9078C48.1617 22.6831 49.4023 21.959 50.6004 21.2561 51.2926 22.2092 50.5631 23.0186 49.9881 23.8066 50.5312 23.7214 51.6227 23.5457 52.1658 23.4605 52.2084 24.9461 50.1797 25.6649 48.9338 26.011 49.3225 25.5638 50.1052 24.6692 50.4939 24.2166 49.7431 24.4882 48.987 24.7438 48.2309 24.9834 48.6835 24.2645 49.1894 23.5777 49.7005 22.8961 48.9444 23.2529 48.183 23.5936 47.4109 23.9078Z" fill="#14141D" fill-rule="nonzero" fill-opacity="1" transform="matrix(1.01562 0 0 1 403.053 10)"/><path d="M30.2388 21.8312C30.6968 22.3796 31.1334 22.9387 31.554 23.5138 31.1387 23.8066 30.7553 24.1314 30.3986 24.4935 30.3027 23.6096 30.2442 22.7204 30.2388 21.8312Z" fill="#F99243" fill-rule="nonzero" fill-opacity="1" transform="matrix(1.01562 0 0 1 403.053 10)"/><path d="M32.3261 22.7364C32.4912 22.6086 32.8106 22.3423 32.9757 22.2145L33.2686 22.3423C33.6253 22.9494 33.6573 23.5723 33.3697 24.2007 32.6349 24.5681 32.0119 23.3327 32.3261 22.7364Z" fill="#FFAE61" fill-rule="nonzero" fill-opacity="1" transform="matrix(1.01562 0 0 1 403.053 10)"/><path d="M8.42364 29.1526C9.0839 26.8736 10.2287 24.7118 11.6397 22.8056 10.8144 25.0366 9.54714 27.0653 8.42364 29.1526Z" fill="#14141D" fill-rule="nonzero" fill-opacity="1" transform="matrix(1.01562 0 0 1 403.053 10)"/><path d="M31.554 23.5138C32.784 24.1581 30.8405 25.8673 30.3986 24.4935 30.7553 24.1314 31.1387 23.8066 31.554 23.5138Z" fill="#00A45A" fill-rule="nonzero" fill-opacity="1" transform="matrix(1.01562 0 0 1 403.053 10)"/><path d="M32.3155 26.0643C30.9097 24.9248 33.8916 24.6266 32.7201 25.9844L32.3155 26.0643Z" fill="#E61630" fill-rule="nonzero" fill-opacity="1" transform="matrix(1.01562 0 0 1 403.053 10)"/><path d="M49.7751 26.7512C50.7974 26.1175 51.8251 25.4892 52.8474 24.8556 53.1988 25.5904 53.8964 26.2453 53.907 27.0919 53.1403 27.7416 52.2936 28.29 51.4896 28.8864 50.9092 28.1782 50.3395 27.4647 49.7751 26.7512Z" fill="#14141D" fill-rule="nonzero" fill-opacity="1" transform="matrix(1.01562 0 0 1 403.053 10)"/><path d="M9.96779 27.7043C10.4949 26.8896 11.0594 26.0909 11.7356 25.3881 11.5492 26.1761 11.3203 26.9535 11.1179 27.7416 11.4427 27.4806 12.0923 26.9642 12.4171 26.7032 12.3852 27.1239 12.3213 27.9652 12.284 28.3858 12.9336 27.8374 13.5726 27.2836 14.2382 26.7618 13.8814 27.6883 13.4395 28.5829 12.9549 29.4561 11.9645 28.8597 10.9635 28.2847 9.96779 27.7043Z" fill="#14141D" fill-rule="nonzero" fill-opacity="1" transform="matrix(1.01562 0 0 1 403.053 10)"/><path d="M30.4358 25.8034C31.1387 25.5531 31.6765 26.6766 31.341 27.2304 31.1973 27.3475 30.9097 27.5925 30.766 27.7096 30.1164 27.4221 30.0684 26.3358 30.4358 25.8034Z" fill="#E98C44" fill-rule="nonzero" fill-opacity="1" transform="matrix(1.01562 0 0 1 403.053 10)"/><path d="M32.3155 26.0643 32.7201 25.9844C32.8799 26.1655 33.2047 26.5275 33.3644 26.7139L33.2047 27.1612C32.3527 27.3209 32.0545 26.9535 32.3155 26.0643Z" fill="#FFAE61" fill-rule="nonzero" fill-opacity="1" transform="matrix(1.01562 0 0 1 403.053 10)"/><path d="M52.4268 26.1708C54.2105 26.1388 52.0221 28.2048 51.1755 27.5339 50.824 26.7938 51.8836 26.3465 52.4268 26.1708Z" fill="#F89243" fill-rule="nonzero" fill-opacity="1" transform="matrix(1.01562 0 0 1 403.053 10)"/><path d="M12.4171 26.7032C12.6088 26.8097 12.6088 26.8097 12.4171 26.7032Z" fill="#080F1C" fill-rule="nonzero" fill-opacity="1" transform="matrix(1.01562 0 0 1 403.053 10)"/><path d="M30.766 27.7096C30.9097 27.5925 31.1973 27.3475 31.341 27.2304L31.6552 27.5712 31.5114 28.0238 31.0375 28.0823 30.766 27.7096Z" fill="#159B5A" fill-rule="nonzero" fill-opacity="1" transform="matrix(1.01562 0 0 1 403.053 10)"/><path d="M32.0119 29.4455C31.1707 28.6787 32.9651 27.651 33.1727 28.7852 32.8799 28.9503 32.3048 29.2804 32.0119 29.4455Z" fill="#CC1C2E" fill-rule="nonzero" fill-opacity="1" transform="matrix(1.01562 0 0 1 403.053 10)"/><path d="M9.4726 28.5403C10.447 29.2378 12.4118 29.291 12.6674 30.6009 11.9645 30.6542 11.2617 30.6488 10.5642 30.7021 11.1552 31.2771 11.6131 31.9427 11.9326 32.6935 10.6866 32.1504 8.96675 31.9108 8.42896 30.4571 9.0626 30.569 9.69091 30.6914 10.3192 30.8245 9.97312 30.0897 9.72286 29.3123 9.4726 28.5403Z" fill="#14141D" fill-rule="nonzero" fill-opacity="1" transform="matrix(1.01562 0 0 1 403.053 10)"/><path d="M30.159 29.0088C31.0109 28.5616 31.9055 30.5104 30.8405 30.7926 30.0844 30.6701 29.9353 29.6105 30.159 29.0088Z" fill="#FFAE61" fill-rule="nonzero" fill-opacity="1" transform="matrix(1.01562 0 0 1 403.053 10)"/><path d="M33.1727 28.7852C33.3165 29.9673 33.407 31.16 33.5242 32.3474L32.9651 31.9534C32.7201 31.9587 32.2303 31.9694 31.9907 31.9747L32.2462 31.751C32.5977 31.4688 32.9491 31.1866 33.3005 30.9097 32.6243 30.6648 32.1983 30.1749 32.0119 29.4455 32.3048 29.2804 32.8799 28.9503 33.1727 28.7852Z" fill="#FFAE61" fill-rule="nonzero" fill-opacity="1" transform="matrix(1.01562 0 0 1 403.053 10)"/><path d="M30.5157 31.4103C30.7447 30.5264 32.193 30.9577 32.2462 31.751L31.9907 31.9747C31.2878 32.2143 30.7979 32.0279 30.5157 31.4103Z" fill="#00A45A" fill-rule="nonzero" fill-opacity="1" transform="matrix(1.01562 0 0 1 403.053 10)"/><path d="M40.196 31.1547C40.5314 31.1281 41.197 31.0748 41.5325 31.0482 41.0905 32.2516 40.6113 33.439 40.0842 34.6104 40.7551 35.8244 41.4313 37.0384 42.0756 38.2684 41.6709 38.2365 40.8616 38.1779 40.4569 38.146 40.409 37.3419 40.0309 36.5965 39.4079 36.0853 39.3387 36.2131 39.2003 36.474 39.131 36.6018 38.6625 37.6082 38.2418 38.8382 36.8255 38.2844 37.5496 37.113 38.1194 35.8564 38.6784 34.5997 37.9969 33.3697 37.31 32.1344 36.5805 30.931 37.7147 30.9896 38.5933 31.4955 38.9181 32.587 39.0352 32.8106 39.2695 33.2579 39.3866 33.4816 39.7487 32.9012 40.1268 32.2782 40.1481 31.5753L40.196 31.1547Z" fill="#FFAE61" fill-rule="nonzero" fill-opacity="1" transform="matrix(1.01562 0 0 1 403.053 10)"/><path d="M54.3703 30.9417C55.0678 31.2878 55.0571 31.6392 54.349 32.0066 53.6461 31.6712 53.6568 31.3144 54.3703 30.9417Z" fill="#915F37" fill-rule="nonzero" fill-opacity="1" transform="matrix(1.01562 0 0 1 403.053 10)"/><path d="M38.0661 34.6104C37.4271 33.4496 36.8201 32.2516 36.5805 30.931 37.31 32.1344 37.9969 33.3697 38.6784 34.5997 38.1194 35.8564 37.5496 37.113 36.8255 38.2844L36.6338 38.6092C36.8308 37.1875 37.4538 35.8883 38.0661 34.6104Z" fill="#14141D" fill-rule="nonzero" fill-opacity="1" transform="matrix(1.01562 0 0 1 403.053 10)"/><path d="M38.9181 32.587C39.0192 31.799 39.4292 31.4582 40.1481 31.5753 40.1268 32.2782 39.7487 32.9012 39.3866 33.4816 39.2695 33.2579 39.0352 32.8106 38.9181 32.587Z" fill="#14141D" fill-rule="nonzero" fill-opacity="1" transform="matrix(1.01562 0 0 1 403.053 10)"/><path d="M7.31078 34.834C7.64623 33.7531 8.05091 32.6882 8.65792 31.7244 8.78039 32.1184 9.02532 32.9065 9.14779 33.3005 9.90922 33.5668 10.6653 33.8383 11.4161 34.1258 10.25 35.1588 8.57805 33.6466 7.31078 34.834Z" fill="#14141D" fill-rule="nonzero" fill-opacity="1" transform="matrix(1.01562 0 0 1 403.053 10)"/><path d="M31.9907 31.9747C32.2303 31.9694 32.7201 31.9587 32.9651 31.9534 32.9012 32.161 32.7787 32.5817 32.7201 32.7894L32.3634 32.8426C32.2675 32.6243 32.0812 32.1877 31.9907 31.9747Z" fill="#E31832" fill-rule="nonzero" fill-opacity="1" transform="matrix(1.01562 0 0 1 403.053 10)"/><path d="M22.9706 33.4709C23.7321 33.1461 24.5468 31.8256 25.4892 32.5391 26.5808 33.1142 27.5286 33.9182 28.5136 34.653 27.4381 34.9299 26.4157 35.3558 25.4253 35.8404 24.0516 35.8191 22.8801 36.49 21.8045 37.2674 21.7726 37.2301 21.714 37.1503 21.6821 37.1077 21.6981 35.8457 21.3573 34.6104 20.4255 33.7105L20.3136 33.5721 20.8674 33.1727C21.6448 33.9981 22.5819 34.8021 23.7268 35.0151 23.1943 34.259 22.5819 33.5668 22.0016 32.8426L22.9706 33.4709Z" fill="#C7C7C7" fill-rule="nonzero" fill-opacity="1" transform="matrix(1.01562 0 0 1 403.053 10)"/><path d="M30.4092 32.7521C31.0588 32.3581 31.6818 33.4496 31.4049 33.9981 31.1813 34.1258 30.7394 34.3814 30.5157 34.5039 30.1057 33.9555 30.0684 33.3697 30.4092 32.7521Z" fill="#E98C44" fill-rule="nonzero" fill-opacity="1" transform="matrix(1.01562 0 0 1 403.053 10)"/><path d="M32.3634 32.8426 32.7201 32.7894C34.2856 33.849 31.7244 34.5571 32.3634 32.8426Z" fill="#D89846" fill-rule="nonzero" fill-opacity="1" transform="matrix(1.01562 0 0 1 403.053 10)"/><path d="M19.8078 34.1897C19.9622 34.0726 20.271 33.833 20.4255 33.7105 21.3573 34.6104 21.6981 35.8457 21.6821 37.1077 21.0005 36.1705 20.3296 35.2281 19.8078 34.1897Z" fill="#F0F0ED" fill-rule="nonzero" fill-opacity="1" transform="matrix(1.01562 0 0 1 403.053 10)"/><path d="M30.5157 34.5039C30.7394 34.3814 31.1813 34.1258 31.4049 33.9981 32.7255 34.243 31.4049 36.3675 30.5743 35.2813 30.5636 35.0843 30.5317 34.7009 30.5157 34.5039Z" fill="#00A45A" fill-rule="nonzero" fill-opacity="1" transform="matrix(1.01562 0 0 1 403.053 10)"/><path d="M20.7343 39.2588C20.3083 37.6348 18.1997 35.6913 19.8078 34.1897 20.3296 35.2281 21.0005 36.1705 21.6821 37.1077 21.714 37.1503 21.7726 37.2301 21.8045 37.2674 22.8801 36.49 24.0516 35.8191 25.4253 35.8404 26.4157 35.3558 27.4381 34.9299 28.5136 34.653L28.8597 34.5625C29.1366 35.0523 30.0418 36.3036 28.7373 36.064 27.7522 35.8777 26.9482 36.3196 26.2879 37.0118 25.5904 37.7466 24.4669 37.0225 23.6682 37.491 22.6565 38.0235 21.7087 38.6678 20.7343 39.2588Z" fill="#C0A683" fill-rule="nonzero" fill-opacity="1" transform="matrix(1.01562 0 0 1 403.053 10)"/><path d="M32.3155 36.3995C30.6488 36.0694 32.9171 34.1312 32.9704 35.8297 32.8106 35.9735 32.4805 36.2557 32.3155 36.3995Z" fill="#CC1D2F" fill-rule="nonzero" fill-opacity="1" transform="matrix(1.01562 0 0 1 403.053 10)"/><path d="M32.9704 35.8297C33.7265 35.9895 33.6147 37.2195 33.3005 37.7413 32.587 38.2525 31.8735 36.9692 32.3155 36.3995 32.4805 36.2557 32.8106 35.9735 32.9704 35.8297Z" fill="#FFAE61" fill-rule="nonzero" fill-opacity="1" transform="matrix(1.01562 0 0 1 403.053 10)"/><path d="M30.4571 37.7094C29.323 36.3835 31.7564 35.6114 31.3836 37.3952 31.2345 37.507 30.9364 37.7307 30.7873 37.8425L30.4571 37.7094Z" fill="#E79446" fill-rule="nonzero" fill-opacity="1" transform="matrix(1.01562 0 0 1 403.053 10)"/><path d="M39.131 36.6018C39.2003 36.474 39.3387 36.2131 39.4079 36.0853 40.0309 36.5965 40.409 37.3419 40.4569 38.146 39.6688 38.4442 38.9181 37.3206 39.131 36.6018Z" fill="#14141D" fill-rule="nonzero" fill-opacity="1" transform="matrix(1.01562 0 0 1 403.053 10)"/><path d="M31.3836 37.3952C32.161 37.4431 31.9853 38.6678 31.3517 38.8329 30.6968 39.2003 30.2282 38.2418 30.7873 37.8425 30.9364 37.7307 31.2345 37.507 31.3836 37.3952Z" fill="#018854" fill-rule="nonzero" fill-opacity="1" transform="matrix(1.01562 0 0 1 403.053 10)"/><path d="M32.2356 40.0788C31.0801 38.6199 33.9235 38.6571 32.5657 39.9936L32.2356 40.0788Z" fill="#E51731" fill-rule="nonzero" fill-opacity="1" transform="matrix(1.01562 0 0 1 403.053 10)"/><path d="M10.3032 40.164C11.1818 39.589 12.1775 39.2322 13.1253 38.8009 13.1466 40.8882 13.1679 42.9808 13.0029 45.0627 12.4331 44.5782 11.8634 44.0936 11.2936 43.6091 10.9209 43.9658 10.1701 44.6687 9.7974 45.0201 9.91987 43.4121 9.71753 41.7029 10.3032 40.164Z" fill="#F89243" fill-rule="nonzero" fill-opacity="1" transform="matrix(1.01562 0 0 1 403.053 10)"/><path d="M30.2548 39.1417C30.6488 39.4612 31.4422 40.0895 31.8362 40.409 31.4262 40.7923 31.0322 41.197 30.6435 41.607L30.2229 42.0543C29.7596 41.5484 29.3017 41.0426 28.8544 40.5261 29.2271 40.5314 29.9673 40.5474 30.34 40.5527 30.3187 40.2013 30.2761 39.4931 30.2548 39.1417Z" fill="#EE9445" fill-rule="nonzero" fill-opacity="1" transform="matrix(1.01562 0 0 1 403.053 10)"/><path d="M50.8134 38.9447C51.8783 39.4612 52.9486 39.9617 54.0295 40.4516 54.104 42.0596 54.12 43.673 54.0987 45.281 53.7792 44.9136 53.1349 44.1788 52.8155 43.8061 52.1179 44.2214 51.5482 44.8018 50.9305 45.313 50.9358 43.1884 50.8932 41.0692 50.8134 38.9447Z" fill="#F99243" fill-rule="nonzero" fill-opacity="1" transform="matrix(1.01562 0 0 1 403.053 10)"/><path d="M31.8362 40.409 32.2356 40.0788 32.5657 39.9936C32.5284 40.1321 32.4432 40.409 32.406 40.5527 32.2675 40.9627 31.9907 41.7881 31.8522 42.2034L31.783 42.1927 30.7713 42.1395 30.6435 41.607C31.0322 41.197 31.4262 40.7923 31.8362 40.409Z" fill="#00A45A" fill-rule="nonzero" fill-opacity="1" transform="matrix(1.01562 0 0 1 403.053 10)"/><path d="M32.5657 39.9936C33.2153 39.9457 33.8277 40.5793 33.9555 41.1917 33.6466 41.9531 32.5604 41.0532 32.406 40.5527 32.4432 40.409 32.5284 40.1321 32.5657 39.9936Z" fill="#FBA949" fill-rule="nonzero" fill-opacity="1" transform="matrix(1.01562 0 0 1 403.053 10)"/><path d="M18.7056 40.5261C19.6108 40.5527 20.5107 40.5953 21.4158 40.6539L21.1123 40.9947C20.9845 41.1438 20.729 41.4366 20.6012 41.5857 19.7386 42.3684 19.2647 40.9787 18.7056 40.5261Z" fill="#F99243" fill-rule="nonzero" fill-opacity="1" transform="matrix(1.01562 0 0 1 403.053 10)"/><path d="M22.0442 40.5847C22.9387 40.5847 23.8386 40.5953 24.7331 40.6219L24.4935 40.9308C24.3551 41.1757 24.0835 41.6709 23.9451 41.9212 23.0718 41.9052 22.5979 41.1331 22.0442 40.5847Z" fill="#F99243" fill-rule="nonzero" fill-opacity="1" transform="matrix(1.01562 0 0 1 403.053 10)"/><path d="M25.7395 40.3717C26.5542 40.5421 27.3742 40.7071 28.1888 40.8829 27.7203 41.1118 27.3688 41.4686 27.1345 41.9425 26.9375 42.1182 26.5488 42.4643 26.3518 42.6347 26.7884 42.9595 27.6617 43.6091 28.0983 43.9392 27.5499 43.8221 26.453 43.5931 25.9045 43.4813 25.9578 43.1352 26.0749 42.4483 26.1335 42.1022 26.0164 41.5218 25.8832 40.9414 25.7395 40.3717Z" fill="#F99243" fill-rule="nonzero" fill-opacity="1" transform="matrix(1.01562 0 0 1 403.053 10)"/><path d="M35.9469 40.6912C36.5486 40.2173 37.1556 40.2332 37.7733 40.7391L37.8584 41.0852C37.72 41.2343 37.4431 41.5271 37.3047 41.6709 37.1183 41.6762 36.7456 41.6762 36.5592 41.6816 36.4048 41.4313 36.1013 40.9414 35.9469 40.6912Z" fill="#FFAE61" fill-rule="nonzero" fill-opacity="1" transform="matrix(1.01562 0 0 1 403.053 10)"/><path d="M39.0991 40.819C39.573 40.7231 40.5208 40.5261 40.9947 40.4303 42.23 40.5101 42.1608 41.9318 41.4952 42.656 41.3408 42.3471 41.0319 41.7295 40.8722 41.4207 40.6432 40.8243 40.3451 40.803 39.983 41.3568 39.7593 41.2236 39.3227 40.9574 39.0991 40.819Z" fill="#00A45A" fill-rule="nonzero" fill-opacity="1" transform="matrix(1.01562 0 0 1 403.053 10)"/><path d="M42.4057 40.6592C43.2523 40.6486 44.099 40.6486 44.9403 40.6592L44.7326 40.9308C44.5995 41.181 44.3386 41.6762 44.2055 41.9212 43.4068 41.8413 42.9275 41.1864 42.4057 40.6592Z" fill="#FFAE61" fill-rule="nonzero" fill-opacity="1" transform="matrix(1.01562 0 0 1 403.053 10)"/><path d="M17.0762 41.591C17.2679 41.426 17.6513 41.0958 17.843 40.9308 18.876 41.2662 18.0027 42.656 17.1934 42.0596L17.0762 41.591Z" fill="#309557" fill-rule="nonzero" fill-opacity="1" transform="matrix(1.01562 0 0 1 403.053 10)"/><path d="M20.6012 41.5857C20.729 41.4366 20.9845 41.1438 21.1123 40.9947 22.5553 41.0532 20.9473 43.0021 20.6012 41.5857Z" fill="#0E9D5B" fill-rule="nonzero" fill-opacity="1" transform="matrix(1.01562 0 0 1 403.053 10)"/><path d="M24.4935 40.9308C25.617 41.0373 24.6692 42.7678 23.9451 41.9212 24.0835 41.6709 24.3551 41.1757 24.4935 40.9308Z" fill="#00AE64" fill-rule="nonzero" fill-opacity="1" transform="matrix(1.01562 0 0 1 403.053 10)"/><path d="M27.1345 41.9425C27.3688 41.4686 27.7203 41.1118 28.1888 40.8829 28.2634 41.1917 28.4071 41.804 28.4764 42.1075L28.0344 42.3099 27.3742 42.2034 27.1345 41.9425Z" fill="#00A45A" fill-rule="nonzero" fill-opacity="1" transform="matrix(1.01562 0 0 1 403.053 10)"/><path d="M34.5465 41.2343C36.3303 41.3248 33.6892 42.8157 34.5465 41.2343Z" fill="#00B867" fill-rule="nonzero" fill-opacity="1" transform="matrix(1.01562 0 0 1 403.053 10)"/><path d="M37.8584 41.0852C39.4718 40.5847 38.3217 42.9701 37.3366 41.9158L37.3047 41.6709C37.4431 41.5271 37.72 41.2343 37.8584 41.0852Z" fill="#039659" fill-rule="nonzero" fill-opacity="1" transform="matrix(1.01562 0 0 1 403.053 10)"/><path d="M39.983 41.3568C40.3451 40.803 40.6432 40.8243 40.8722 41.4207 40.6539 41.4047 40.2066 41.3727 39.983 41.3568Z" fill="#F99243" fill-rule="nonzero" fill-opacity="1" transform="matrix(1.01562 0 0 1 403.053 10)"/><path d="M44.7326 40.9308C45.8614 41.0266 44.9509 42.7625 44.2055 41.9212 44.3386 41.6762 44.5995 41.181 44.7326 40.9308Z" fill="#00AD63" fill-rule="nonzero" fill-opacity="1" transform="matrix(1.01562 0 0 1 403.053 10)"/><path d="M36.5592 41.6816C36.7456 41.6762 37.1183 41.6762 37.3047 41.6709L37.3366 41.9158C37.2088 42.0862 36.9479 42.4323 36.8201 42.6027 36.3729 42.9701 35.867 43.1938 35.3026 43.2683 34.9032 42.4856 35.8883 41.804 36.5592 41.6816Z" fill="#EF182C" fill-rule="nonzero" fill-opacity="1" transform="matrix(1.01562 0 0 1 403.053 10)"/><path d="M25.9045 41.8945 26.1335 42.1022C26.0749 42.4483 25.9578 43.1352 25.9045 43.4813 24.7384 44.083 24.8609 41.8626 25.9045 41.8945Z" fill="#EF182C" fill-rule="nonzero" fill-opacity="1" transform="matrix(1.01562 0 0 1 403.053 10)"/><path d="M28.0344 42.3099 28.4764 42.1075C28.6947 42.2194 29.1313 42.443 29.3496 42.5495L29.3975 42.9755C29.2591 43.1086 28.9875 43.3748 28.8491 43.5079 28.2048 43.3801 27.9332 42.9808 28.0344 42.3099Z" fill="#EF182C" fill-rule="nonzero" fill-opacity="1" transform="matrix(1.01562 0 0 1 403.053 10)"/><path d="M31.783 42.1927 31.8522 42.2034C32.2196 42.2194 32.9544 42.246 33.3165 42.262L32.9917 42.9062C32.7042 43.1831 32.4113 43.4547 32.1131 43.7209 31.9374 43.87 31.5966 44.1735 31.4262 44.3279 31.4688 44.1522 31.5594 43.8008 31.6019 43.6304 31.6445 43.2683 31.7351 42.5495 31.783 42.1927Z" fill="#EF182C" fill-rule="nonzero" fill-opacity="1" transform="matrix(1.01562 0 0 1 403.053 10)"/><path d="M38.5507 43.2577C37.917 42.2886 39.8818 41.6336 39.8605 42.8317 39.4825 43.1565 39.0458 43.2949 38.5507 43.2577Z" fill="#C9202E" fill-rule="nonzero" fill-opacity="1" transform="matrix(1.01562 0 0 1 403.053 10)"/><path d="M42.6613 43.5771C40.9627 43.4547 42.64 41.0213 43.3162 42.6293 43.1512 42.869 42.8264 43.3429 42.6613 43.5771Z" fill="#EF182C" fill-rule="nonzero" fill-opacity="1" transform="matrix(1.01562 0 0 1 403.053 10)"/><path d="M45.4994 43.2044C45.2331 42.3897 45.5153 42.0916 46.346 42.3099 46.4365 42.9542 46.1543 43.2523 45.4994 43.2044Z" fill="#E9112B" fill-rule="nonzero" fill-opacity="1" transform="matrix(1.01562 0 0 1 403.053 10)"/><path d="M19.073 43.1671C19.2966 42.427 20.6651 42.4962 20.7343 43.3003 20.5532 44.067 19.1262 43.9605 19.073 43.1671Z" fill="#E59043" fill-rule="nonzero" fill-opacity="1" transform="matrix(1.01562 0 0 1 403.053 10)"/><path d="M22.4914 43.2204C22.6512 42.1555 24.6373 42.6932 24.2219 43.6623 23.7214 44.083 22.6139 43.9552 22.4914 43.2204Z" fill="#E18C42" fill-rule="nonzero" fill-opacity="1" transform="matrix(1.01562 0 0 1 403.053 10)"/><path d="M29.3975 42.9755C29.5999 42.7838 29.9992 42.3951 30.2016 42.1981 30.553 42.5548 31.2505 43.2736 31.6019 43.6304 31.5594 43.8008 31.4688 44.1522 31.4262 44.3279 31.2771 44.4451 30.9843 44.6794 30.8352 44.7965L30.5636 44.9988C30.4412 44.7219 30.2069 44.1682 30.0897 43.8913 29.7809 43.7955 29.1579 43.6038 28.8491 43.5079 28.9875 43.3748 29.2591 43.1086 29.3975 42.9755Z" fill="#F69244" fill-rule="nonzero" fill-opacity="1" transform="matrix(1.01562 0 0 1 403.053 10)"/><path d="M32.9917 42.9062 33.5561 42.3844C33.9821 42.8583 34.3229 43.3961 34.7275 43.886 34.3921 43.8434 33.7265 43.7635 33.391 43.7209 33.3644 44.0936 33.3058 44.8444 33.2792 45.2225 32.9864 44.8444 32.4007 44.0936 32.1131 43.7209 32.4113 43.4547 32.7042 43.1831 32.9917 42.9062Z" fill="#FFAE61" fill-rule="nonzero" fill-opacity="1" transform="matrix(1.01562 0 0 1 403.053 10)"/><path d="M36.8201 42.6027C37.1449 42.9701 38.4548 43.2044 37.6508 43.7742 37.113 43.8274 36.5752 43.8594 36.0374 43.8807 35.8564 43.7262 35.489 43.4227 35.3026 43.2683 35.867 43.1938 36.3729 42.9701 36.8201 42.6027Z" fill="#FFAE61" fill-rule="nonzero" fill-opacity="1" transform="matrix(1.01562 0 0 1 403.053 10)"/><path d="M39.8605 42.8317 40.4196 42.4377C40.7977 42.9222 41.181 43.4121 41.5538 43.9019 40.5155 43.8807 39.4612 43.8061 38.5507 43.2577 39.0458 43.2949 39.4825 43.1565 39.8605 42.8317Z" fill="#FFAE61" fill-rule="nonzero" fill-opacity="1" transform="matrix(1.01562 0 0 1 403.053 10)"/><path d="M43.3162 42.6293C44.1149 42.5175 44.4184 43.3375 44.871 43.8221 44.0723 43.8274 43.2736 43.8327 42.4696 43.8327L42.6613 43.5771C42.8264 43.3429 43.1512 42.869 43.3162 42.6293Z" fill="#FFAE61" fill-rule="nonzero" fill-opacity="1" transform="matrix(1.01562 0 0 1 403.053 10)"/><path d="M17.3158 44.0244C21.5543 44.0244 25.7981 44.0244 30.0418 44.0564 30.0844 50.4087 30.127 56.7664 30.0205 63.1187 22.976 59.4234 17.7312 52.0487 17.3158 44.0244Z" fill="#00A45A" fill-rule="nonzero" fill-opacity="1" transform="matrix(1.01562 0 0 1 403.053 10)"/><path d="M30.8352 44.7965C30.9843 44.6794 31.2771 44.4451 31.4262 44.3279 31.5594 44.6261 31.8203 45.2278 31.9481 45.5313L31.7351 45.8881C30.9843 45.952 30.6861 45.5899 30.8352 44.7965Z" fill="#00A45A" fill-rule="nonzero" fill-opacity="1" transform="matrix(1.01562 0 0 1 403.053 10)"/><path d="M31.9481 45.5313C32.5923 45.3822 32.981 45.6218 33.1142 46.2661 32.8426 46.3513 32.2995 46.5217 32.0332 46.6069 31.9587 46.4258 31.8096 46.0638 31.7351 45.8881L31.9481 45.5313Z" fill="#C8162D" fill-rule="nonzero" fill-opacity="1" transform="matrix(1.01562 0 0 1 403.053 10)"/><path d="M23.7427 48.4439C24.0303 47.4003 23.8173 45.904 25.0579 45.4408 25.0792 45.6697 25.1271 46.1277 25.1484 46.3566L25.5052 46.4844C25.4999 46.2342 25.4892 45.739 25.4892 45.4887 27.0227 45.8934 26.6819 47.7996 27.0334 48.9817 27.044 50.217 28.7213 50.84 28.4231 52.1232 27.6084 53.4012 26.666 54.6099 25.8992 55.9304 25.9099 55.4938 25.9205 54.6258 25.9312 54.1945 26.4051 53.5343 26.9961 52.7675 26.6766 51.9049 26.9269 51.7612 27.4381 51.4736 27.6883 51.3299 27.454 50.611 26.9003 50.0732 26.2826 49.6632 26.1814 50.3448 26.2081 51.021 26.3625 51.692 26.2134 51.7505 25.9152 51.8623 25.7661 51.9156L25.1538 52.1765 24.994 51.857C24.8556 51.1648 24.5521 50.8134 24.0942 50.7974 23.583 51.9901 23.7694 53.3532 24.371 54.4714 24.4988 54.5939 24.7491 54.8282 24.8769 54.9453 24.9994 55.7174 25.1325 56.4895 25.191 57.2722 24.387 55.8399 23.141 54.4768 23.2582 52.7196 23.3381 51.0849 22.7151 49.5674 22.0122 48.1297 22.4435 48.2096 23.3114 48.364 23.7427 48.4439Z" fill="#B5B19C" fill-rule="nonzero" fill-opacity="1" transform="matrix(1.01562 0 0 1 403.053 10)"/><path d="M25.0579 45.4408 25.4892 45.4887C25.4892 45.739 25.4999 46.2342 25.5052 46.4844L25.1484 46.3566C25.1271 46.1277 25.0792 45.6697 25.0579 45.4408Z" fill="#88756C" fill-rule="nonzero" fill-opacity="1" transform="matrix(1.01562 0 0 1 403.053 10)"/><path d="M30.4145 46.5749C31.1014 46.2608 31.6765 47.3417 31.3357 47.8955 31.2026 48.0179 30.931 48.2735 30.7926 48.4013 30.0951 48.2096 30.0152 47.0808 30.4145 46.5749Z" fill="#EB7E3D" fill-rule="nonzero" fill-opacity="1" transform="matrix(1.01562 0 0 1 403.053 10)"/><path d="M32.0332 46.6069C32.2995 46.5217 32.8426 46.3513 33.1142 46.2661 33.2526 47.0595 33.3538 47.8582 33.439 48.6569 32.6935 48.183 32.2356 47.4588 32.0332 46.6069Z" fill="#FFAE61" fill-rule="nonzero" fill-opacity="1" transform="matrix(1.01562 0 0 1 403.053 10)"/><path d="M36.1652 47.3577C37.6508 46.0584 40.8829 45.7123 41.6975 47.9008 42.1288 50.2223 41.6017 52.5812 40.8882 54.7962 40.5687 56.3777 38.1194 56.6705 37.2248 55.4405 36.1066 52.906 35.8031 50.0945 36.1652 47.3577Z" fill="#FFFFFF" fill-rule="nonzero" fill-opacity="1" transform="matrix(1.01562 0 0 1 403.053 10)"/><path d="M37.8212 46.8358C39.1097 46.2714 40.3451 47.0275 41.2662 47.8795 40.1161 49.0509 38.4229 48.6729 36.9586 48.8273 37.7679 49.0616 38.5826 49.2905 39.3973 49.5195 39.9084 49.3491 40.4249 49.1787 40.9361 49.0083L40.803 49.7218C40.59 50.3555 40.3717 50.9838 40.1374 51.6121 38.9234 51.4097 37.736 51.1116 36.5432 50.8134 36.8468 49.4929 36.3569 47.576 37.8212 46.8358Z" fill="#FFAE61" fill-rule="nonzero" fill-opacity="1" transform="matrix(1.01562 0 0 1 403.053 10)"/><path d="M30.7926 48.4013C30.931 48.2735 31.2026 48.0179 31.3357 47.8955 32.784 48.1138 30.9364 49.8762 30.7926 48.4013Z" fill="#0C9357" fill-rule="nonzero" fill-opacity="1" transform="matrix(1.01562 0 0 1 403.053 10)"/><path d="M36.9586 48.8273C38.4229 48.6729 40.1161 49.0509 41.2662 47.8795 41.1864 48.1617 41.016 48.7261 40.9361 49.0083 40.4249 49.1787 39.9084 49.3491 39.3973 49.5195 38.5826 49.2905 37.7679 49.0616 36.9586 48.8273Z" fill="#231D20" fill-rule="nonzero" fill-opacity="1" transform="matrix(1.01562 0 0 1 403.053 10)"/><path d="M22.9866 48.7048C23.6149 48.4492 24.3764 49.3917 23.8332 49.9082 23.1677 50.3501 22.5926 49.1947 22.9866 48.7048Z" fill="#3D302A" fill-rule="nonzero" fill-opacity="1" transform="matrix(1.01562 0 0 1 403.053 10)"/><path d="M32.39 50.2543C30.75 50.0253 32.8852 47.986 33.0769 49.5834 32.9065 49.7484 32.5604 50.0892 32.39 50.2543Z" fill="#D21D2F" fill-rule="nonzero" fill-opacity="1" transform="matrix(1.01562 0 0 1 403.053 10)"/><path d="M26.2826 49.6632C26.9003 50.0732 27.454 50.611 27.6883 51.3299 27.4381 51.4736 26.9269 51.7612 26.6766 51.9049L26.3625 51.692C26.2081 51.021 26.1814 50.3448 26.2826 49.6632Z" fill="#3D302A" fill-rule="nonzero" fill-opacity="1" transform="matrix(1.01562 0 0 1 403.053 10)"/><path d="M33.0769 49.5834C33.423 50.3927 33.3484 51.3032 33.4017 52.1658 33.0503 51.5908 31.6445 50.9465 32.39 50.2543 32.5604 50.0892 32.9065 49.7484 33.0769 49.5834Z" fill="#FFAE61" fill-rule="nonzero" fill-opacity="1" transform="matrix(1.01562 0 0 1 403.053 10)"/><path d="M30.8565 51.6973C30.0951 51.6068 29.9619 50.2064 30.766 50.0945 31.4262 50.3981 31.586 50.8879 31.2399 51.5642L30.8565 51.6973Z" fill="#E88740" fill-rule="nonzero" fill-opacity="1" transform="matrix(1.01562 0 0 1 403.053 10)"/><path d="M40.1374 51.6121C40.3717 50.9838 40.59 50.3555 40.803 49.7218 40.8243 50.1371 40.8616 50.9678 40.8775 51.3778L40.771 51.4736C40.4356 51.7825 39.7593 52.3948 39.4239 52.6983 38.6358 52.2617 37.8531 51.8144 37.097 51.3299 36.9586 51.2021 36.6817 50.9412 36.5432 50.8134 37.736 51.1116 38.9234 51.4097 40.1374 51.6121Z" fill="#231D20" fill-rule="nonzero" fill-opacity="1" transform="matrix(1.01562 0 0 1 403.053 10)"/><path d="M24.0942 50.7974C24.5521 50.8134 24.8556 51.1648 24.994 51.857 24.6053 52.6717 24.206 53.5449 24.371 54.4714 23.7694 53.3532 23.583 51.9901 24.0942 50.7974Z" fill="#8FAA48" fill-rule="nonzero" fill-opacity="1" transform="matrix(1.01562 0 0 1 403.053 10)"/><path d="M24.371 54.4714C24.206 53.5449 24.6053 52.6717 24.994 51.857L25.1538 52.1765C25.1644 53.103 25.223 54.0668 24.8769 54.9453 24.7491 54.8282 24.4988 54.5939 24.371 54.4714Z" fill="#B5D86E" fill-rule="nonzero" fill-opacity="1" transform="matrix(1.01562 0 0 1 403.053 10)"/><path d="M25.7661 51.9156C25.9152 51.8623 26.2134 51.7505 26.3625 51.692L26.6766 51.9049C26.9961 52.7675 26.4051 53.5343 25.9312 54.1945 25.8406 53.4384 25.7235 52.677 25.7661 51.9156Z" fill="#A6C354" fill-rule="nonzero" fill-opacity="1" transform="matrix(1.01562 0 0 1 403.053 10)"/><path d="M30.8565 51.6973 31.2399 51.5642C31.4156 51.7718 31.7564 52.1978 31.9321 52.4108L31.7564 52.7942C30.9044 52.8953 30.6009 52.5279 30.8565 51.6973Z" fill="#0A9859" fill-rule="nonzero" fill-opacity="1" transform="matrix(1.01562 0 0 1 403.053 10)"/><path d="M37.097 51.3299C37.8531 51.8144 38.6358 52.2617 39.4239 52.6983 39.7593 52.3948 40.4356 51.7825 40.771 51.4736 40.6379 52.4374 40.4835 53.3958 40.3344 54.3543L40.2279 53.9709 40.0895 53.4544C39.1896 53.4651 38.2897 53.4917 37.3899 53.5343L37.2461 53.5396C37.1875 52.8048 37.1343 52.0647 37.097 51.3299Z" fill="#F99243" fill-rule="nonzero" fill-opacity="1" transform="matrix(1.01562 0 0 1 403.053 10)"/><path d="M25.1538 52.1765 25.7661 51.9156C25.7235 52.677 25.8406 53.4384 25.9312 54.1945 25.9205 54.6258 25.9099 55.4938 25.8992 55.9304 25.8886 56.6013 25.8726 57.2722 25.8619 57.9431 25.7075 58.0816 25.3987 58.3638 25.239 58.5022 25.2283 58.1934 25.207 57.581 25.191 57.2722 25.1325 56.4895 24.9994 55.7174 24.8769 54.9453 25.223 54.0668 25.1644 53.103 25.1538 52.1765Z" fill="#231D20" fill-rule="nonzero" fill-opacity="1" transform="matrix(1.01562 0 0 1 403.053 10)"/><path d="M31.9321 52.4108C32.5657 52.251 32.9544 52.496 33.0929 53.1403 32.8319 53.2361 32.3101 53.4331 32.0492 53.5343 31.98 53.3479 31.8309 52.9752 31.7564 52.7942L31.9321 52.4108Z" fill="#C6182E" fill-rule="nonzero" fill-opacity="1" transform="matrix(1.01562 0 0 1 403.053 10)"/><path d="M30.4145 53.4864C31.1014 53.1669 31.6765 54.2531 31.341 54.8069 31.2026 54.9347 30.931 55.1849 30.7979 55.3127 30.1057 55.1157 30.0258 53.9922 30.4145 53.4864Z" fill="#EB7E3E" fill-rule="nonzero" fill-opacity="1" transform="matrix(1.01562 0 0 1 403.053 10)"/><path d="M32.0492 53.5343C32.3101 53.4331 32.8319 53.2361 33.0929 53.1403 33.2419 53.9443 33.3431 54.759 33.4336 55.579 32.7095 55.0997 32.2622 54.3649 32.0492 53.5343Z" fill="#FFAE61" fill-rule="nonzero" fill-opacity="1" transform="matrix(1.01562 0 0 1 403.053 10)"/><path d="M37.3899 53.5343C38.2897 53.4917 39.1896 53.4651 40.0895 53.4544L40.2279 53.9709C40.1587 54.3543 40.0256 55.1317 39.9564 55.5151 38.4761 55.8239 37.4538 55.0625 37.3899 53.5343Z" fill="#A6603D" fill-rule="nonzero" fill-opacity="1" transform="matrix(1.01562 0 0 1 403.053 10)"/><path d="M30.7979 55.3127C30.931 55.1849 31.2026 54.9347 31.341 54.8069 32.784 55.0518 30.9204 56.7983 30.7979 55.3127Z" fill="#089859" fill-rule="nonzero" fill-opacity="1" transform="matrix(1.01562 0 0 1 403.053 10)"/><path d="M32.0013 57.0912C31.1707 56.3191 32.981 55.3234 33.1834 56.4416 32.8905 56.6066 32.2995 56.9314 32.0013 57.0912Z" fill="#D51E30" fill-rule="nonzero" fill-opacity="1" transform="matrix(1.01562 0 0 1 403.053 10)"/><path d="M30.4784 56.8143C31.1174 56.6279 31.4742 57.6875 31.2984 58.1881 31.1707 58.2945 30.9044 58.5022 30.7713 58.6087 30.1483 58.3265 30.159 57.3255 30.4784 56.8143Z" fill="#E4793C" fill-rule="nonzero" fill-opacity="1" transform="matrix(1.01562 0 0 1 403.053 10)"/><path d="M33.1834 56.4416C33.2845 57.3201 33.3484 58.1987 33.4017 59.0773 32.8266 58.4969 32.3048 57.8632 32.0013 57.0912 32.2995 56.9314 32.8905 56.6066 33.1834 56.4416Z" fill="#FFAE61" fill-rule="nonzero" fill-opacity="1" transform="matrix(1.01562 0 0 1 403.053 10)"/><path d="M30.7713 58.6087C30.9044 58.5022 31.1707 58.2945 31.2984 58.1881 31.4635 58.4809 31.7883 59.0773 31.9534 59.3701L31.7404 59.7216C30.9949 59.7642 30.6701 59.3914 30.7713 58.6087Z" fill="#00A45A" fill-rule="nonzero" fill-opacity="1" transform="matrix(1.01562 0 0 1 403.053 10)"/><path d="M31.9534 59.3701C32.5817 59.1944 32.9651 59.4234 33.1035 60.057 32.8373 60.1529 32.2995 60.3552 32.0279 60.4564 31.9587 60.27 31.8149 59.9026 31.7404 59.7216L31.9534 59.3701Z" fill="#C51A2F" fill-rule="nonzero" fill-opacity="1" transform="matrix(1.01562 0 0 1 403.053 10)"/><path d="M30.2974 60.2274C31.0482 60.2487 31.4688 60.9729 31.4742 61.6544 31.2771 61.8088 30.8831 62.1177 30.6861 62.2668 30.2548 61.6917 30.0684 60.9249 30.2974 60.2274Z" fill="#EB7E3E" fill-rule="nonzero" fill-opacity="1" transform="matrix(1.01562 0 0 1 403.053 10)"/><path d="M32.0279 60.4564C32.2995 60.3552 32.8373 60.1529 33.1035 60.057 33.2419 60.8557 33.3591 61.6597 33.4283 62.4744 32.7201 61.9846 32.2516 61.2817 32.0279 60.4564Z" fill="#FFAE61" fill-rule="nonzero" fill-opacity="1" transform="matrix(1.01562 0 0 1 403.053 10)"/><path d="M8.25857 63.1666C9.80805 62.139 11.7036 61.9739 13.4821 61.6651 13.5087 62.8258 13.5194 63.9866 13.53 65.1527 11.1871 65.2166 8.62065 65.8023 7.29481 67.9375 7.02325 67.6873 6.48013 67.1921 6.20857 66.9418 5.68143 65.3071 6.97533 63.96 8.25857 63.1666Z" fill="#F89243" fill-rule="nonzero" fill-opacity="1" transform="matrix(1.01562 0 0 1 403.053 10)"/><path d="M30.6861 62.2668C30.8831 62.1177 31.2771 61.8088 31.4742 61.6544 31.57 61.9899 31.7617 62.6555 31.8575 62.9856 31.5647 62.8099 30.979 62.4478 30.6861 62.2668Z" fill="#0A9859" fill-rule="nonzero" fill-opacity="1" transform="matrix(1.01562 0 0 1 403.053 10)"/><path d="M49.9135 61.8142C53.0551 61.6384 56.3351 62.9483 57.8206 65.8556 57.5544 66.6596 57.2935 67.469 57.0273 68.2783 55.4032 65.9301 52.5758 65.1527 49.8603 65.1368 49.8709 64.0292 49.8869 62.9217 49.9135 61.8142Z" fill="#F89243" fill-rule="nonzero" fill-opacity="1" transform="matrix(1.01562 0 0 1 403.053 10)"/><path d="M12.7686 71.0844C18.6736 70.8129 24.1581 68.3529 29.914 67.3092 37.9223 66.5052 45.1692 71.7766 53.1722 71.0152 55.3979 70.8395 56.7983 69.0025 58.1295 67.4423 58.3212 69.5349 58.4223 71.8671 57.1071 73.6509 55.8558 75.3069 53.6781 75.9352 51.676 75.8926 44.7805 75.9671 38.3057 72.8895 31.4529 72.6286 24.7864 72.9853 18.4766 76.1588 11.7356 75.7968 8.52481 75.6903 5.43649 73.0812 5.48974 69.7373 4.92532 68.7629 6.25649 67.7245 6.81026 68.7522 8.25857 70.5094 10.5535 71.1962 12.7686 71.0844Z" fill="#F99243" fill-rule="nonzero" fill-opacity="1" transform="matrix(1.01562 0 0 1 403.053 10)"/><path d="M30.0418 68.9812C30.6116 68.8374 31.2558 69.2155 31.4209 69.7852 32.209 70.8501 30.2229 72.3517 29.5093 71.2601 29.4455 70.52 28.8438 69.0238 30.0418 68.9812Z" fill="#14141D" fill-rule="nonzero" fill-opacity="1" transform="matrix(1.01562 0 0 1 403.053 10)"/><path d="M33.5987 68.6244C34.1152 68.7629 34.6264 68.9119 35.1429 69.061 35.0949 69.8438 35.2014 70.5999 35.4623 71.3347 35.3612 71.4199 35.1535 71.5956 35.0523 71.6808L34.7169 71.9843C34.3229 70.8714 33.9501 69.7479 33.5987 68.6244Z" fill="#986038" fill-rule="nonzero" fill-opacity="1" transform="matrix(1.01562 0 0 1 403.053 10)"/><path d="M28.109 69.0397C28.7213 69.9236 28.7799 71.0205 28.9449 72.0535 28.6095 71.8245 27.9439 71.3773 27.6138 71.1536 27.5286 72.5114 26.2081 72.3144 25.2177 72.4103 24.9461 72.5647 24.4136 72.8788 24.1474 73.0332 24.2592 72.1014 24.3444 71.159 24.5627 70.2431 25.5212 70.0993 25.7022 71.4571 26.4903 71.7607 26.5808 71.0099 26.5808 70.2591 26.4956 69.503 26.847 69.7639 27.5605 70.2804 27.9119 70.5413 27.9599 70.1686 28.061 69.4178 28.109 69.0397Z" fill="#14141D" fill-rule="nonzero" fill-opacity="1" transform="matrix(1.01562 0 0 1 403.053 10)"/><path d="M33.0023 71.1696C33.1887 70.3177 33.3857 69.4657 33.5987 68.6244 33.9501 69.7479 34.3229 70.8714 34.7169 71.9843 34.1471 71.7127 33.5721 71.4412 33.0023 71.1696Z" fill="#14141D" fill-rule="nonzero" fill-opacity="1" transform="matrix(1.01562 0 0 1 403.053 10)"/><path d="M35.5848 69.3273C36.2983 69.5722 37.0331 69.8544 37.7679 69.4817 37.3313 70.3709 36.9905 71.2974 37.2994 72.3038 37.1183 72.1014 36.7562 71.6968 36.5699 71.4891 36.064 71.5477 35.5582 71.6116 35.0523 71.6808 35.1535 71.5956 35.3612 71.4199 35.4623 71.3347L36.1918 70.8075C35.9895 70.3123 35.7871 69.8171 35.5848 69.3273Z" fill="#14141D" fill-rule="nonzero" fill-opacity="1" transform="matrix(1.01562 0 0 1 403.053 10)"/><path d="M30.0152 69.8118C30.8618 69.5562 31.144 69.8704 30.8565 70.7596 30.0099 70.9992 29.7277 70.6851 30.0152 69.8118Z" fill="#F89243" fill-rule="nonzero" fill-opacity="1" transform="matrix(1.01562 0 0 1 403.053 10)"/><path d="M20.7183 70.9513C21.3307 70.7916 21.9483 70.6318 22.5606 70.4774 22.7151 71.5636 22.8588 72.6499 22.9387 73.7414L22.4701 73.2196C21.8365 72.5008 21.2774 71.7234 20.7183 70.9513Z" fill="#915D37" fill-rule="nonzero" fill-opacity="1" transform="matrix(1.01562 0 0 1 403.053 10)"/><path d="M37.3792 71.5477C37.8531 70.962 38.343 70.3922 38.8488 69.8384 39.2162 70.11 39.951 70.6531 40.3184 70.9247 39.4345 70.7223 38.6412 70.8608 38.1673 71.6595 38.6199 71.7713 39.5357 71.9949 39.9936 72.1121 39.0938 73.2622 38.1034 72.2346 37.3792 71.5477Z" fill="#14141D" fill-rule="nonzero" fill-opacity="1" transform="matrix(1.01562 0 0 1 403.053 10)"/><path d="M39.9777 72.5594C40.2545 71.3347 40.5793 70.0408 42.1288 70.3496 41.8679 70.9673 41.5058 71.5264 41.0958 72.0535 41.2769 72.3517 41.6283 72.9374 41.804 73.2303 41.3514 73.0652 40.4356 72.7297 39.9777 72.5594Z" fill="#14141D" fill-rule="nonzero" fill-opacity="1" transform="matrix(1.01562 0 0 1 403.053 10)"/><path d="M8.02429 71.6808C9.80805 71.3453 11.4694 72.3783 13.2425 72.4582 13.2425 72.7564 13.2371 73.3581 13.2318 73.6562 13.5034 73.4645 14.0518 73.0865 14.3234 72.8948L14.3553 72.964C14.366 73.5391 14.3979 74.6839 14.4139 75.2536 14.1477 74.9768 13.6205 74.4177 13.3543 74.1408 13.0774 74.3271 12.513 74.6945 12.2308 74.8809 12.3213 74.3325 12.5023 73.2249 12.5929 72.6765L11.3256 72.5807C11.4321 73.3208 11.5332 74.0662 11.6344 74.8117 11.0966 74.5827 10.5588 74.3484 10.0157 74.1195 10.3405 73.3687 10.4364 72.586 9.79208 71.9577 9.96779 72.7138 9.91455 74.3751 8.71117 73.8639 8.42896 73.603 7.85922 73.0759 7.57701 72.8149 7.93909 72.8149 8.66857 72.8096 9.03065 72.8096 8.77506 72.5274 8.27455 71.963 8.02429 71.6808Z" fill="#14141D" fill-rule="nonzero" fill-opacity="1" transform="matrix(1.01562 0 0 1 403.053 10)"/><path d="M18.7695 72.1973C18.5725 71.1004 20.5799 71.3507 20.2338 72.0748 19.9675 72.1706 19.4404 72.3677 19.1742 72.4635 19.1688 72.6978 19.1529 73.161 19.1475 73.3953 19.7918 73.3048 20.4361 73.2249 21.0857 73.1557 20.9952 72.602 20.8088 71.4997 20.7183 70.9513 21.2774 71.7234 21.8365 72.5008 22.4701 73.2196 21.0484 73.1238 19.696 74.62 18.3914 73.5391 18.5086 73.0865 18.631 72.6392 18.7695 72.1973Z" fill="#14141D" fill-rule="nonzero" fill-opacity="1" transform="matrix(1.01562 0 0 1 403.053 10)"/><path d="M42.3525 70.9194 43.3961 70.898C43.5292 71.6382 42.4749 73.193 43.9286 73.1025 44.3599 72.4529 44.7858 71.8033 45.132 71.111 45.313 72.0961 45.0361 73.3581 46.1117 73.9065 46.4578 73.2569 46.133 71.5583 47.3896 71.931 48.2575 72.0109 49.1734 72.2558 49.7431 72.9747 51.5109 72.4369 53.481 72.6392 55.0199 71.4358 54.9986 72.0216 54.9826 72.6126 54.9719 73.2036 55.1849 73.3793 55.6109 73.7361 55.8292 73.9118 55.1636 74.1568 54.514 74.439 53.8484 74.6786 53.71 74.2899 53.4278 73.5125 53.2894 73.1291 52.4108 73.1557 51.7984 73.5231 51.4417 74.2419 51.9529 74.2153 52.9699 74.1674 53.481 74.1408 52.9539 75.243 51.8783 75.1365 50.9199 74.6839 50.7335 74.7531 50.3661 74.9022 50.1851 74.9768 50.0253 74.7371 49.7058 74.2579 49.5461 74.0183 49.2852 74.2633 48.7634 74.7478 48.4971 74.9927 48.5344 74.1355 48.5664 73.2835 48.5983 72.4316 48.3161 72.7031 47.7464 73.2462 47.4588 73.5178 47.6558 73.8053 48.0499 74.3857 48.2469 74.6732 46.2288 74.2686 44.1629 73.9597 42.2247 73.2409 42.2087 72.4635 42.2992 71.6914 42.3525 70.9194Z" fill="#3D302A" fill-rule="nonzero" fill-opacity="1" transform="matrix(1.01562 0 0 1 403.053 10)"/><path d="M16.384 72.2771C17.1827 72.2505 17.9761 72.2239 18.7695 72.1973 18.631 72.6392 18.5086 73.0865 18.3914 73.5391 18.3329 73.7574 18.221 74.1887 18.1625 74.407 18.2051 73.8532 18.4394 72.7564 17.6992 72.6073L17.4543 72.8575C17.1135 73.1983 16.7834 73.5551 16.4586 73.9118 16.2243 73.9118 15.7557 73.9012 15.5214 73.9012L15.0369 73.9864C14.8665 73.7308 14.5257 73.2196 14.3553 72.964L14.3234 72.8948C14.0518 73.0865 13.5034 73.4645 13.2318 73.6562 13.2371 73.3581 13.2425 72.7564 13.2425 72.4582 14.2062 72.586 15.4948 72.2878 15.777 73.5444 15.9794 73.1184 16.1817 72.6978 16.384 72.2771Z" fill="#3D302A" fill-rule="nonzero" fill-opacity="1" transform="matrix(1.01562 0 0 1 403.053 10)"/><path d="M17.6992 72.6073C18.4394 72.7564 18.2051 73.8532 18.1625 74.407 17.4862 74.1887 17.2519 73.6722 17.4543 72.8575L17.6992 72.6073Z" fill="#262124" fill-rule="nonzero" fill-opacity="1" transform="matrix(1.01562 0 0 1 403.053 10)"/><path d="M15.5214 73.9012C15.7557 73.9012 16.2243 73.9118 16.4586 73.9118 17.4223 75.2217 14.5683 75.1791 15.5214 73.9012Z" fill="#14141D" fill-rule="nonzero" fill-opacity="1" transform="matrix(1.01562 0 0 1 403.053 10)"/></g></g></g></g></g></svg>